<svg width="24" height="23" viewBox="0 0 24 23" fill="none" xmlns="http://www.w3.org/2000/svg">
<path d="M20.5231 22.8564H7.94987C7.21887 22.8557 6.51802 22.5658 6.00106 22.0503C5.48411 21.5349 5.19326 20.836 5.19232 20.107V17.7417H2.75755C2.02644 17.741 1.32548 17.451 0.808501 16.9354C0.291522 16.4198 0.00075394 15.7208 2.72709e-06 14.9916V9.18995C-0.000704983 8.62642 0.136341 8.07121 0.399273 7.5724C0.662204 7.0736 1.04309 6.64624 1.50896 6.32732L9.86107 0.611978C10.4315 0.219069 11.107 0.00592403 11.8003 0.000121695C12.4935 -0.00568064 13.1725 0.196127 13.7495 0.579432L22.4428 6.3252C22.922 6.64087 23.3152 7.07025 23.5869 7.57482C23.8587 8.07939 24.0007 8.64336 24 9.21613V19.386C23.9996 20.3058 23.6333 21.1879 22.9814 21.8385C22.3295 22.4892 21.4454 22.8553 20.5231 22.8564V22.8564ZM6.51824 17.7417V20.107C6.5188 20.4855 6.66982 20.8483 6.93818 21.1159C7.20654 21.3836 7.57035 21.5342 7.94987 21.5348H20.5231C21.0939 21.534 21.6412 21.3073 22.0445 20.9044C22.4478 20.5015 22.6743 19.9553 22.6741 19.386V9.21613C22.674 8.8618 22.5858 8.51302 22.4173 8.20109C22.2488 7.88916 22.0052 7.62384 21.7085 7.42893L13.0138 1.68175C12.6569 1.44452 12.2368 1.31958 11.8079 1.32312C11.379 1.32665 10.961 1.45848 10.6081 1.70156L2.25954 7.41761C1.9716 7.61467 1.73612 7.87871 1.57345 8.18689C1.41078 8.49508 1.32583 8.83813 1.32593 9.18641V14.9881C1.3263 15.3666 1.47725 15.7296 1.74566 15.9972C2.01406 16.2649 2.37798 16.4155 2.75755 16.4158H5.19232V11.2276C5.19326 10.4986 5.48411 9.79969 6.00106 9.28425C6.51802 8.76882 7.21887 8.47893 7.94987 8.47818H16.0253C16.7562 8.47893 17.457 8.76884 17.9739 9.2843C18.4907 9.79975 18.7814 10.4986 18.7821 11.2276V14.9916C18.7814 15.7206 18.4907 16.4196 17.9739 16.9352C17.4571 17.4507 16.7563 17.7408 16.0253 17.7417H6.51824ZM6.51824 16.4194H16.0246C16.4041 16.4188 16.7679 16.2682 17.0363 16.0006C17.3046 15.7329 17.4557 15.3701 17.4562 14.9916V11.2276C17.4557 10.8491 17.3046 10.4863 17.0363 10.2186C16.7679 9.951 16.4041 9.80039 16.0246 9.79983H7.94987C7.57035 9.80039 7.20654 9.951 6.93818 10.2186C6.66982 10.4863 6.5188 10.8491 6.51824 11.2276V16.4194Z" fill="#087EA8"/>
</svg>
